<svg xmlns="http://www.w3.org/2000/svg" viewBox="0 0 192 192" width="192" height="192"><g transform="translate(14,14) scale(1.00000,0.97619)">
  
  <g opacity="0.9">
    <g fill="#FFFFFF">
      <rect x="21" y="61" width="122" height="46"/>
      <rect x="59" y="145" width="122" height="46" transform="rotate(-90 59 145)"/>
      <circle cx="23" cy="84" r="23"/>
      <circle cx="82" cy="23" r="23"/>
      <circle cx="82" cy="145" r="23"/>
      <circle cx="141" cy="84" r="23"/>
    </g>
    <g fill="#E86248">
      <circle cx="23" cy="84" r="18"/>
      <circle cx="141" cy="84" r="18"/>
      <circle cx="82" cy="25" r="18"/>
      <rect x="100" y="25" width="39" height="36" transform="rotate(90 100 25)"/>
      <circle cx="82" cy="107" r="18"/>
      <circle cx="82" cy="143" r="18"/>
      <rect x="100" y="106" width="39" height="36" transform="rotate(90 100 106)"/>
    </g>
    <circle cx="111" cy="84" r="23" fill="#FFFFFF"/>
    <g fill="#E86248">
      <rect x="111" y="66" width="30" height="36"/>
      <circle cx="111" cy="84" r="18"/>
      <circle cx="82" cy="63" r="18"/>
    </g>
    <circle cx="53" cy="84" r="23" fill="#FFFFFF"/>
    <g fill="#E86248">
      <rect x="23" y="66" width="30" height="36"/>
      <circle cx="53" cy="84" r="18"/>
      <rect x="64" y="89" width="19" height="18"/>
      <rect x="82" y="60" width="18" height="21"/>
      <rect x="53" y="98" width="12" height="4"/>
      <rect x="100" y="66" width="12" height="4"/>
    </g>
  </g>
</g></svg>